HIERARCHY
ROOT hip
{
	OFFSET 0.000000 0.000000 0.000000 
	CHANNELS 6 Xposition Yposition Zposition Xrotation Zrotation Yrotation
	JOINT abdomen
	{
		OFFSET 0.000000 3.402643 0.000000 
		CHANNELS 3 Xrotation Zrotation Yrotation
		JOINT chest
		{
			OFFSET 0.000000 8.438565 -0.680529 
			CHANNELS 3 Xrotation Zrotation Yrotation
			JOINT neck
			{
				OFFSET 0.000000 10.207942 -0.272212 
				CHANNELS 3 Xrotation Zrotation Yrotation
				JOINT head
				{
					OFFSET 0.000000 3.130431 0.000000 
					CHANNELS 3 Xrotation Zrotation Yrotation
					End Site
					{
						OFFSET 0.000000 3.130435 0.000000 
					}
				}
			}
			JOINT lCollar
			{
				OFFSET 3.470700 6.669187 -0.816635 
				CHANNELS 3 Yrotation Zrotation Xrotation
				JOINT lShldr
				{
					OFFSET 3.198488 0.000000 0.000000 
					CHANNELS 3 Zrotation Yrotation Xrotation
					JOINT lForeArm
					{
						OFFSET 10.139888 0.000000 0.000000 
						CHANNELS 3 Yrotation Zrotation Xrotation
						JOINT lHand
						{
							OFFSET 8.370511 0.000000 0.000000 
							CHANNELS 3 Zrotation Yrotation Xrotation
							End Site
							{
								OFFSET 4.083176 0.000000 0.000000 
							}
						}
					}
				}
			}
			JOINT rCollar
			{
				OFFSET -3.470700 6.669187 -0.816635 
				CHANNELS 3 Yrotation Zrotation Xrotation
				JOINT rShldr
				{
					OFFSET -3.198488 0.000000 0.000000 
					CHANNELS 3 Zrotation Yrotation Xrotation
					JOINT rForeArm
					{
						OFFSET -10.139888 0.000000 0.000000 
						CHANNELS 3 Yrotation Zrotation Xrotation
						JOINT rHand
						{
							OFFSET -8.370511 0.000000 0.000000 
							CHANNELS 3 Zrotation Yrotation Xrotation
							End Site
							{
								OFFSET -4.083176 0.000000 0.000000 
							}
						}
					}
				}
			}
		}
	}
	JOINT lThigh
	{
		OFFSET 5.308129 -1.633274 1.361059 
		CHANNELS 3 Xrotation Zrotation Yrotation
		JOINT lShin
		{
			OFFSET -2.041588 -20.007561 0.000000 
			CHANNELS 3 Xrotation Zrotation Yrotation
			JOINT lFoot
			{
				OFFSET 0.000000 -19.190928 -1.224953 
				CHANNELS 3 Xrotation Yrotation Zrotation
				End Site
				{
					OFFSET 0.000000 -2.449906 4.627600 
				}
			}
		}
	}
	JOINT rThigh
	{
		OFFSET -5.308129 -1.633274 1.361059 
		CHANNELS 3 Xrotation Zrotation Yrotation
		JOINT rShin
		{
			OFFSET 2.041588 -20.007561 0.000000 
			CHANNELS 3 Xrotation Zrotation Yrotation
			JOINT rFoot
			{
				OFFSET 0.000000 -19.190928 -1.224953 
				CHANNELS 3 Xrotation Yrotation Zrotation
				End Site
				{
					OFFSET 0.000000 -2.449906 4.627600 
				}
			}
		}
	}
}
MOTION
Frames: 11
Frame Time: 0.011111
-26.021822 59.538380 2.235990 -178.340530 -2.078028 83.791504 6.563553 0.297687 -2.480200 -23.471075 -3.009406 -0.535308 -24.174856 -4.820855 0.234331 -29.308994 -0.335897 -3.549718 -4.921947 -9.476123 -0.539306 72.153214 -50.981140 -70.847275 -58.145248 9.096387 11.585185 8.524705 12.647240 -39.397839 3.322233 12.489151 -0.342371 -71.527229 48.534660 -76.665359 62.395542 -9.420254 13.488616 -8.534408 -12.637552 52.327984 -32.209740 16.128044 7.358772 45.545235 -4.192333 -6.726907 -12.517505 -0.170269 -3.127126 39.247578 -12.500614 -13.947144 37.357803 4.847545 5.766441 36.826134 -10.448750 5.048247 
-26.046963 59.131538 2.252859 -178.492096 -2.385932 83.559052 6.286911 0.755036 -2.169234 -23.305109 -3.072434 -0.490313 -24.549330 -4.860568 0.315581 -29.036812 -0.282277 -3.463962 -4.921947 -9.476123 -0.539306 73.832977 -50.330112 -71.330147 -55.811077 8.795009 10.571322 8.524705 12.647240 -39.915417 3.322233 12.489151 -0.342371 -73.505844 47.841503 -80.164925 60.051453 -9.282640 12.433800 -8.534408 -12.637552 50.716656 -33.291252 16.396885 6.123763 42.842739 -4.447234 -6.427466 -11.895224 1.319416 -2.837471 41.068779 -12.499930 -13.852733 36.417191 4.908342 5.635180 37.649326 -11.154131 5.550913 
-26.081360 58.688305 2.254513 -178.521713 -2.637995 83.286407 6.040187 1.005176 -1.847891 -23.129192 -3.084904 -0.420428 -24.984091 -4.942667 0.401773 -28.667263 -0.159869 -3.408968 -4.921947 -9.476123 -0.539306 75.413460 -49.936817 -71.701790 -53.256256 8.373678 9.489377 8.524705 12.647240 -40.813854 3.322233 12.489151 -0.342371 -75.605186 47.079777 -83.621017 57.254803 -8.997286 11.195776 -8.534408 -12.637552 48.509624 -34.237389 16.552444 4.799157 40.166965 -4.656761 -6.104766 -11.425955 3.002470 -2.521225 42.794792 -12.616822 -13.688393 35.662228 4.967309 5.547369 38.482544 -11.800971 6.024981 
-26.126348 58.209682 2.242605 -178.404099 -2.822318 82.991837 5.794173 1.027309 -1.520026 -22.933611 -3.067827 -0.343896 -25.430323 -5.067297 0.489118 -28.200718 -0.023927 -3.372416 -4.921947 -9.476123 -0.539306 76.743019 -49.874470 -72.330368 -50.820755 7.880628 8.481791 8.524705 12.647240 -41.966198 3.322233 12.489151 -0.342371 -77.712868 46.290417 -86.822800 54.111374 -8.531459 9.851017 -8.534408 -12.637552 45.765480 -35.077950 16.562447 3.321579 37.583572 -4.845646 -5.814720 -11.190073 4.928440 -2.211227 44.389870 -12.861151 -13.523350 35.106327 5.006459 5.471144 39.355698 -12.257401 6.376838 
-26.178938 57.699310 2.220443 -178.172226 -2.949651 82.680138 5.509265 0.904943 -1.207255 -22.728365 -3.090246 -0.265300 -25.799164 -5.204959 0.587906 -27.665627 0.093138 -3.297065 -4.921947 -9.476123 -0.539306 77.668282 -50.245804 -73.728905 -48.818058 7.417185 7.674668 8.524705 12.647240 -43.450573 3.322233 12.489151 -0.342371 -79.678246 45.570217 -89.618019 50.864971 -7.902265 8.507768 -8.534408 -12.637552 42.786964 -35.861862 16.432104 1.582292 35.142719 -5.021025 -5.517633 -11.281055 7.020594 -1.828185 45.831173 -13.222050 -13.378313 34.798347 5.025602 5.440254 40.187370 -12.671659 6.710862 
-26.234838 57.163467 2.190674 -177.903854 -3.092440 82.347977 5.087586 0.787002 -0.867624 -22.494127 -3.239321 -0.171195 -26.030161 -5.317030 0.685952 -27.091106 0.175495 -3.175194 -4.921947 -9.476123 -0.539306 78.256920 -51.097378 -76.389191 -47.437019 7.063906 7.137669 8.524705 12.647240 -45.569714 3.322233 12.489151 -0.342371 -81.123489 45.107002 -91.541962 48.133713 -7.257515 7.424636 -8.534408 -12.637552 40.228374 -36.663197 16.247236 -0.478807 32.896961 -5.162754 -5.203816 -11.776703 9.188556 -1.403631 47.103539 -13.642097 -13.213076 34.788845 5.019959 5.447435 40.972946 -12.978938 6.953579 
-26.291069 56.611084 2.152636 -177.639343 -3.252443 81.965584 4.469285 0.699640 -0.513937 -22.221104 -3.525677 -0.073182 -26.583002 -5.384740 0.784151 -25.959921 0.248295 -3.038778 -4.921947 -9.476123 -0.539306 78.414543 -52.291409 -79.677010 -46.981419 6.941756 6.962111 8.524705 12.647240 -47.874401 3.322233 12.489151 -0.342371 -81.728355 45.151581 -92.489998 46.548618 -6.831705 6.795988 -8.534408 -12.637552 38.607281 -37.589630 16.080923 -2.863188 30.911890 -5.283919 -4.981912 -12.708437 11.370795 -0.857285 48.137409 -14.110673 -13.008243 35.115902 5.000760 5.499400 41.650112 -13.201457 7.134127 
-26.344984 56.054401 2.102690 -177.356522 -3.486107 81.524071 3.635506 0.611581 -0.206369 -21.899212 -3.871577 0.021706 -26.599079 -5.284133 0.811389 -25.226654 0.202527 -2.850188 -4.921947 -9.476123 -0.539306 77.867180 -53.542850 -81.702965 -47.810490 7.163987 7.285892 8.524705 12.647240 -48.958385 3.322233 12.489151 -0.342371 -81.389999 45.725620 -92.162827 46.455509 -6.806907 6.769850 -8.534408 -12.637552 38.617046 -38.695881 15.925812 -5.561798 29.226307 -5.357265 -4.762166 -14.056688 13.341712 -0.206447 48.883636 -14.657921 -12.782998 35.790451 4.967353 5.558597 42.221264 -13.258245 7.206743 
-26.399231 55.507645 2.040175 -177.009949 -3.770000 81.034859 2.674492 0.392309 0.019934 -21.547432 -4.092700 0.085612 -26.748779 -5.089927 0.838291 -24.287827 0.122010 -2.632598 -4.921947 -9.476123 -0.539306 76.465118 -54.668064 -81.481194 -49.828186 7.657439 8.083862 8.524705 12.647240 -48.479870 3.322233 12.489151 -0.342371 -80.238075 46.721073 -90.551682 47.822212 -7.174835 7.293249 -8.534408 -12.637552 40.335796 -39.904037 15.749829 -8.435272 27.831215 -5.445451 -4.590080 -15.668305 15.012013 0.553887 49.379936 -15.263666 -12.630401 36.792904 4.889140 5.691037 42.719273 -13.118926 7.068416 
-26.459099 54.984043 1.970384 -176.588409 -4.054861 80.557426 1.725167 0.026175 0.118929 -21.224407 -4.120219 0.122250 -27.062590 -4.832287 0.846081 -23.250668 -0.018139 -2.423773 -4.921947 -9.476123 -0.539306 74.561996 -55.445461 -79.488632 -52.288910 8.188586 9.082129 8.524705 12.647240 -47.034561 3.322233 12.489151 -0.342371 -78.469894 47.858360 -88.003128 50.362415 -7.789017 8.309195 -8.534408 -12.637552 43.343605 -41.151321 15.546434 -11.268376 26.698433 -5.494272 -4.431545 -17.380220 16.158726 1.292435 49.681927 -15.947043 -12.592128 38.130951 4.791390 5.845293 43.177788 -12.796747 6.776783 
-26.530876 54.495827 1.902907 -176.178848 -4.300675 80.154251 0.944745 -0.384603 0.103026 -20.969536 -3.963597 0.128183 -27.483770 -4.564813 0.833044 -22.321173 -0.204788 -2.274461 -4.921947 -9.476123 -0.539306 72.684448 -55.760052 -76.770271 -54.384377 8.571936 9.958409 8.524705 12.647240 -45.413464 3.322233 12.489151 -0.342371 -76.507881 48.815311 -84.922241 53.310352 -8.390235 9.518758 -8.534408 -12.637552 46.839703 -42.383392 15.359966 -13.784062 25.813725 -5.532729 -4.322139 -18.744349 16.702761 1.855284 49.896530 -16.572016 -12.649981 39.684711 4.674151 6.029457 43.628345 -12.480714 6.446359 
